<?xml version="1.0" standalone="no"?>
<!DOCTYPE svg PUBLIC "-//W3C//DTD SVG 20010904//EN"
 "http://www.w3.org/TR/2001/REC-SVG-20010904/DTD/svg10.dtd">
<svg version="1.0" xmlns="http://www.w3.org/2000/svg"
 width="512.000000pt" height="512.000000pt" viewBox="0 0 512.000000 512.000000"
 preserveAspectRatio="xMidYMid meet">
<metadata>
Created by potrace 1.11, written by Peter Selinger 2001-2013
</metadata>
<g transform="translate(0.000000,512.000000) scale(0.100000,-0.100000)"
fill="#000000" stroke="none">
<path d="M2420 3635 c0 -6 -10 -12 -22 -13 -13 -1 -32 -4 -43 -6 -11 -3 -42
-8 -68 -12 -26 -3 -45 -9 -42 -12 3 -3 -14 -11 -37 -18 -56 -15 -151 -56 -160
-69 -4 -5 -8 -7 -8 -3 0 4 -9 0 -20 -10 -12 -9 -23 -16 -26 -14 -5 3 -25 -14
-98 -82 -27 -25 -53 -46 -58 -46 -4 0 -8 -9 -8 -21 0 -11 -4 -18 -9 -14 -5 3
-18 -8 -27 -25 -10 -16 -22 -30 -27 -30 -4 0 -6 -4 -3 -8 3 -5 -5 -20 -17 -33
-12 -13 -22 -26 -23 -29 -2 -15 -23 -54 -24 -45 0 6 -7 -8 -15 -29 -8 -22 -11
-44 -8 -49 3 -6 1 -7 -5 -3 -8 4 -12 0 -12 -11 0 -11 -4 -23 -10 -29 -5 -5
-11 -18 -13 -29 -2 -11 -7 -27 -11 -36 -4 -9 -6 -20 -4 -25 1 -5 -4 -19 -11
-32 -7 -13 -10 -30 -7 -37 3 -8 1 -17 -3 -19 -10 -6 -21 -92 -26 -195 -2 -47
-8 -77 -16 -82 -11 -6 -11 -11 -2 -20 6 -6 9 -18 6 -27 -5 -11 -2 -13 8 -8 8
4 5 0 -5 -8 -13 -10 -15 -16 -7 -16 10 0 11 -3 2 -13 -7 -10 -7 -17 0 -24 8
-8 8 -13 0 -17 -7 -5 -7 -15 0 -33 5 -15 8 -32 5 -40 -3 -7 -2 -13 2 -13 4 0
7 -26 6 -57 -1 -32 3 -66 8 -77 7 -13 6 -21 -2 -26 -8 -5 -9 -9 -2 -11 6 -2
12 -25 13 -51 2 -27 6 -48 9 -48 4 0 6 -16 5 -35 -1 -19 3 -35 7 -35 5 0 6 -4
3 -10 -3 -5 -2 -10 2 -10 5 0 10 -10 10 -22 1 -13 7 -41 13 -63 6 -22 14 -52
17 -67 3 -15 9 -26 13 -23 4 2 6 -7 4 -20 -1 -14 2 -25 7 -25 5 0 9 -11 9 -24
0 -14 5 -28 10 -31 6 -3 10 -15 10 -26 0 -10 5 -19 11 -19 6 0 9 -7 5 -15 -3
-8 2 -19 12 -24 9 -6 13 -11 9 -11 -5 0 -1 -12 7 -27 8 -16 17 -36 20 -46 3
-11 11 -15 17 -11 7 4 9 3 6 -3 -4 -6 0 -24 8 -39 8 -16 15 -24 15 -19 0 6 9
-8 20 -31 11 -22 30 -50 41 -62 11 -12 18 -22 15 -22 -3 0 15 -20 39 -44 24
-24 41 -47 37 -50 -3 -3 0 -6 6 -6 6 0 22 -11 36 -25 14 -14 28 -25 31 -25 3
0 27 -15 53 -34 43 -30 105 -54 115 -44 2 2 11 -3 20 -11 14 -11 17 -11 17 0
0 8 6 5 15 -7 12 -15 16 -16 24 -5 4 7 11 9 14 4 3 -5 54 -8 114 -8 l109 0 1
-57 c2 -61 -6 -70 -52 -62 -17 3 -24 1 -20 -6 4 -6 -4 -10 -22 -9 -33 1 -60
-5 -69 -14 -4 -4 -18 -7 -31 -7 -13 0 -23 -4 -23 -8 0 -4 -9 -8 -20 -9 -27 -2
-113 -45 -123 -61 -5 -7 -12 -10 -17 -7 -5 3 -16 -5 -24 -17 -9 -12 -16 -17
-16 -10 0 7 -5 10 -10 7 -6 -4 -8 -10 -6 -14 3 -4 -6 -14 -19 -21 -14 -7 -25
-17 -25 -22 0 -5 -5 -6 -12 -2 -7 4 -8 3 -4 -4 6 -10 -7 -31 -42 -68 -7 -8
-11 -14 -7 -14 3 0 0 -10 -7 -22 -7 -13 -11 -27 -10 -32 2 -5 -3 -13 -10 -17
-10 -7 -10 -9 0 -9 10 0 10 -5 2 -20 -12 -22 -10 -57 4 -79 7 -10 5 -12 -3 -6
-10 6 -11 3 -3 -11 5 -11 8 -27 7 -37 -2 -9 1 -14 6 -11 6 3 8 -6 6 -23 -2
-18 -13 -32 -30 -41 -15 -7 -27 -17 -27 -23 0 -5 -6 -9 -12 -9 -7 0 -22 -13
-33 -29 -10 -16 -23 -27 -27 -25 -4 3 -8 1 -8 -4 0 -5 -11 -22 -25 -38 -14
-16 -25 -33 -25 -37 0 -5 -6 -5 -12 -1 -7 4 -10 4 -6 -1 4 -4 -1 -22 -12 -40
-11 -18 -17 -35 -13 -38 3 -4 1 -7 -6 -7 -7 0 -10 -4 -7 -9 3 -5 -1 -14 -10
-21 -12 -11 -12 -15 -2 -21 7 -5 8 -9 2 -9 -5 0 -11 -18 -12 -40 l-3 -40 153
0 c84 0 160 5 168 10 11 7 12 10 2 10 -10 0 -10 4 2 16 9 8 16 20 16 25 0 6 5
7 10 4 6 -3 10 -1 10 5 0 15 71 79 88 80 6 0 12 -6 12 -14 0 -8 11 -23 25 -34
13 -11 22 -22 19 -25 -3 -3 4 -15 15 -26 12 -12 21 -28 21 -36 0 -13 64 -15
514 -15 514 0 515 0 521 21 4 12 16 30 26 40 10 10 19 25 19 33 0 8 7 17 16
20 8 3 12 10 9 16 -3 5 -1 10 4 10 6 0 11 5 11 11 0 6 10 21 21 33 18 19 26
21 45 12 13 -6 24 -14 24 -18 0 -5 6 -8 14 -8 8 0 18 -9 21 -20 4 -11 10 -18
15 -15 5 3 17 -8 26 -24 10 -17 21 -28 26 -25 7 5 9 0 8 -21 0 -3 7 -19 15
-35 l16 -30 162 2 c170 3 171 3 155 48 -3 8 -11 41 -18 72 -6 31 -16 58 -21
60 -6 2 -11 10 -13 18 -5 26 -29 70 -38 70 -5 0 -6 5 -3 10 3 6 1 10 -4 10 -6
0 -11 5 -11 11 0 6 -18 29 -40 50 -22 22 -40 43 -40 49 0 5 -7 10 -15 10 -8 0
-15 5 -15 10 0 6 -6 10 -14 10 -7 0 -19 7 -26 15 -14 17 -67 45 -86 45 -7 0
-16 5 -20 12 -4 7 -3 8 4 4 12 -7 17 22 14 66 -1 10 2 18 7 18 6 0 6 12 1 28
-4 17 -3 36 2 47 8 13 7 16 -1 11 -7 -5 -11 3 -11 23 0 17 -4 31 -10 31 -5 0
-10 6 -10 13 0 20 -37 92 -47 92 -4 0 -7 3 -5 8 1 4 -3 7 -8 7 -6 0 -24 14
-42 30 -17 17 -33 28 -36 25 -3 -2 -10 2 -16 9 -6 8 -20 16 -31 18 -11 2 -26
9 -33 16 -8 7 -18 10 -23 7 -5 -4 -9 -1 -9 4 0 6 -16 11 -35 11 -19 0 -35 4
-35 9 0 5 -17 8 -39 7 -22 0 -37 3 -35 9 4 10 -62 17 -189 19 -75 1 -80 6 -82
78 0 20 -4 40 -8 44 -12 13 -8 85 7 99 7 8 16 12 18 9 3 -2 22 12 44 33 21 20
39 34 40 32 1 -9 64 57 64 68 0 7 7 13 15 13 8 0 15 4 15 8 0 5 11 22 24 37
14 16 23 32 20 37 -3 4 2 8 10 8 9 0 15 3 14 8 -3 11 33 82 43 82 5 0 6 6 3
14 -3 8 -1 17 5 21 6 3 11 15 11 26 0 10 5 19 10 19 6 0 10 11 10 24 0 14 4
27 9 31 6 3 10 13 10 23 2 65 15 131 25 125 6 -4 4 2 -4 12 -9 11 -10 16 -2
11 9 -5 12 18 13 106 1 62 0 118 -1 123 -1 6 -2 20 -2 32 0 13 -3 21 -7 19 -9
-6 -7 46 2 62 5 6 4 12 0 12 -5 0 -10 69 -11 153 -1 83 -4 177 -8 207 -3 30
-6 80 -7 110 -1 30 -6 61 -11 69 -7 11 -6 12 5 6 11 -7 12 -6 3 6 -5 8 -12 32
-13 54 -2 22 -8 46 -14 54 -10 12 -9 13 2 6 11 -6 12 -5 5 6 -5 8 -10 25 -12
39 -2 13 -6 27 -10 30 -4 3 -8 20 -9 39 -1 19 -7 37 -12 40 -5 4 -9 15 -7 26
2 11 -1 27 -5 35 -4 8 -20 44 -36 80 -15 36 -31 67 -35 68 -4 2 -8 10 -8 18 0
8 -4 14 -9 14 -6 0 -8 9 -6 20 2 11 0 20 -4 20 -5 0 -21 19 -36 43 -16 23 -41
54 -56 68 -16 15 -26 28 -24 31 3 3 -11 13 -30 24 -19 10 -35 22 -35 26 0 5
-6 8 -13 8 -7 0 -23 9 -35 21 -12 11 -27 17 -32 14 -6 -3 -10 -1 -10 4 0 6
-12 11 -26 11 -14 0 -23 4 -19 10 4 6 -5 10 -19 10 -14 0 -26 3 -26 8 0 4 -19
7 -43 7 -23 0 -45 4 -48 8 -10 14 -179 16 -179 3 0 -6 -5 -4 -10 4 -5 8 -10
10 -10 5z m-575 -1495 c3 -5 1 -10 -4 -10 -6 0 -11 5 -11 10 0 6 2 10 4 10 3
0 8 -4 11 -10z"/>
</g>
</svg>
